# xmcd
#
# Track frame offsets: 
#        150
#        16011
#        34111
#        55249
#        69720
#        89524
#        123610
#        141866
#        162242
#        181879
#        197936
#        216652
#        237281
#
# Disc length: 3396 seconds
#
# Revision: 0
# Processed by: cddbd v1.5.2PL0 Copyright (c) Steve Scherf et al.
# Submitted via: ExactAudioCopy v0.95a5
#
DISCID=c10d420d
DTITLE=Blues Clinic - Shades of Blue 
DYEAR=1998
DGENRE=Blues
TTITLE0=My Pencil
TTITLE1=Poor Man's Blues
TTITLE2=Stop
TTITLE3=Greenlight District
TTITLE4=Hey Baby
TTITLE5=Stormy Monday
TTITLE6=Johnny Guitar
TTITLE7=Tears Like Rain
TTITLE8=Backstreets
TTITLE9=Down South
TTITLE10=Key To The Highway
TTITLE11=You Was Wrong
TTITLE12=7th Floor
EXTD=
EXTT0=
EXTT1=
EXTT2=
EXTT3=
EXTT4=
EXTT5=
EXTT6=
EXTT7=
EXTT8=
EXTT9=
EXTT10=
EXTT11=
EXTT12=
PLAYORDER=
